<?xml version="1.0" encoding="utf-8"?>
<!-- Generator: Adobe Illustrator 18.0.0, SVG Export Plug-In . SVG Version: 6.00 Build 0)  -->
<!DOCTYPE svg PUBLIC "-//W3C//DTD SVG 1.1//EN" "http://www.w3.org/Graphics/SVG/1.1/DTD/svg11.dtd">
<svg version="1.1" id="图层_1" xmlns="http://www.w3.org/2000/svg" xmlns:xlink="http://www.w3.org/1999/xlink" x="0px" y="0px"
	 viewBox="28.2 3.1 78.8 78.8" enable-background="new 28.2 3.1 78.8 78.8" xml:space="preserve">
<path fill="#0092FF" d="M67.6,3.1c-21.8,0-39.4,17.6-39.4,39.4c0,21.8,17.6,39.4,39.4,39.4S107,64.3,107,42.5
	C107,20.8,89.4,3.1,67.6,3.1z M94.8,30.7L65.4,60c0,0-2,2.2-2.6,2.6c-0.6,0.6-2,0.6-3-0.2C59.2,62,57.4,60,57.4,60L43.1,45.8
	c-1.2-1-1.2-2.8,0-4c1-1.2,2.8-1.2,4,0L61.4,56l29.4-29.4c1-1.2,2.8-1.2,4,0C96,27.7,96,29.5,94.8,30.7z"/>
</svg>
