<?xml version="1.0" standalone="no"?><!DOCTYPE svg PUBLIC "-//W3C//DTD SVG 1.1//EN" "http://www.w3.org/Graphics/SVG/1.1/DTD/svg11.dtd"><svg width="206.25" height="200" viewBox="0 0 206.25 200" version="1.1" xmlns="http://www.w3.org/2000/svg" xmlns:xlink="http://www.w3.org/1999/xlink"><defs><style type="text/css"><![CDATA[
@font-face { font-family: ifont; src: url("//at.alicdn.com/t/font_1442373896_4754455.eot?#iefix") format("embedded-opentype"), url("//at.alicdn.com/t/font_1442373896_4754455.woff") format("woff"), url("//at.alicdn.com/t/font_1442373896_4754455.ttf") format("truetype"), url("//at.alicdn.com/t/font_1442373896_4754455.svg#ifont") format("svg"); }

]]></style></defs><g class="transform-group"><g transform="scale(0.1953125, 0.1953125)"><path d="M489.729721 32.172722c20.819699-42.896963 54.843837-42.896963 75.663535 0l100.151134 206.520231c20.819699 42.896963 75.908062 83.628118 122.437992 90.509797l223.951489 33.115896c46.52993 6.881679 57.044577 39.857846 23.369762 73.253201l-162.051311 160.723881c-33.674814 33.395355-54.704107 99.312757-46.774457 146.436537l38.250956 226.990606c7.964583 47.158713-19.597065 67.524291-61.20153 45.237432l-200.3372-107.172542c-41.604465-22.251926-109.722606-22.251926-151.327071 0l-200.3372 107.172542c-41.604465 22.286858-69.166113 1.921281-61.20153-45.237432l38.250956-226.990606c7.964583-47.123781-13.099643-113.041182-46.774457-146.436537l-162.086244-160.723881c-33.674814-33.395355-23.125236-66.33659 23.369762-73.253201l223.986421-33.115896c46.52993-6.881679 101.618294-47.612834 122.437992-90.509797L489.729721 32.172722z" fill="#272636"></path></g></g></svg>