<?xml version="1.0" standalone="no"?><!DOCTYPE svg PUBLIC "-//W3C//DTD SVG 1.1//EN" "http://www.w3.org/Graphics/SVG/1.1/DTD/svg11.dtd"><svg width="200" height="200" viewBox="0 0 200 200" version="1.1" xmlns="http://www.w3.org/2000/svg" xmlns:xlink="http://www.w3.org/1999/xlink"><defs><style type="text/css"><![CDATA[
@font-face { font-family: ifont; src: url("//at.alicdn.com/t/font_1442373896_4754455.eot?#iefix") format("embedded-opentype"), url("//at.alicdn.com/t/font_1442373896_4754455.woff") format("woff"), url("//at.alicdn.com/t/font_1442373896_4754455.ttf") format("truetype"), url("//at.alicdn.com/t/font_1442373896_4754455.svg#ifont") format("svg"); }

]]></style></defs><g class="transform-group"><g transform="scale(0.1953125, 0.1953125)"><path d="M913.22368 435.54816c12.02176-11.71456 16.65024-25.45664 12.6976-37.66272-3.97312-12.20608-15.79008-20.5824-32.41984-23.01952l-209.03936-30.37184c-17.32608-2.51904-39.34208-18.49344-47.104-34.2016l-93.47072-189.41952c-7.41376-15.07328-19.06688-23.71584-31.90784-23.71584s-24.45312 8.64256-31.88736 23.71584l-93.4912 189.41952c-7.76192 15.70816-29.75744 31.68256-47.104 34.2016L130.47808 374.86592c-16.62976 2.43712-28.44672 10.81344-32.41984 23.01952-3.95264 12.20608 0.67584 25.94816 12.6976 37.66272l151.26528 147.43552c12.53376 12.24704 20.95104 38.11328 17.98144 55.37792l-35.69664 208.1792c-2.84672 16.56832 1.47456 30.39232 11.85792 37.94944 5.09952 3.70688 11.18208 5.55008 17.79712 5.55008 6.90176 0 14.37696-2.02752 21.95456-5.98016l186.96192-98.304c15.50336-8.15104 42.7008-8.15104 58.22464 0l186.96192 98.28352c14.90944 7.84384 29.3888 7.9872 39.75168 0.43008 10.36288-7.53664 14.70464-21.38112 11.85792-37.94944l-35.69664-208.15872c-2.99008-17.28512 5.44768-43.15136 17.98144-55.3984L913.22368 435.54816zM713.68704 643.56352l35.71712 208.1792c0.79872 4.64896 0.3072 7.04512 0.512 7.59808-0.96256 0-3.3792-0.3072-7.55712-2.47808l-186.96192-98.304c-24.35072-12.77952-62.48448-12.75904-86.81472 0l-186.96192 98.304c-4.17792 2.17088-6.59456 2.47808-7.0656 2.82624-0.3072-0.90112-0.77824-3.29728 0.02048-7.94624l35.71712-208.1792c4.62848-27.11552-7.14752-63.3856-26.8288-82.57536l-151.26528-147.43552c-3.3792-3.29728-4.38272-5.50912-4.87424-5.85728 0.75776-0.53248 2.88768-1.7408 7.5776-2.41664l209.01888-30.37184c27.21792-3.95264 58.0608-26.37824 70.22592-51.01568l93.47072-189.41952c2.10944-4.23936 3.8912-5.89824 4.07552-6.4512 0.75776 0.55296 2.56 2.21184 4.64896 6.4512l93.4912 189.41952c12.16512 24.63744 43.008 47.06304 70.20544 51.01568l209.03936 30.37184c4.7104 0.67584 7.29088 1.4336 7.3728 1.86368-0.28672 0.90112-1.29024 3.11296-4.68992 6.41024l-151.26528 147.43552C720.83456 580.17792 709.03808 616.448 713.68704 643.56352" fill="#272636"></path></g></g></svg>