<?xml version="1.0" encoding="utf-8"?>
<!-- Generator: Adobe Illustrator 18.0.0, SVG Export Plug-In . SVG Version: 6.00 Build 0)  -->
<!DOCTYPE svg PUBLIC "-//W3C//DTD SVG 1.1//EN" "http://www.w3.org/Graphics/SVG/1.1/DTD/svg11.dtd">
<svg version="1.1" id="图层_1" xmlns="http://www.w3.org/2000/svg" xmlns:xlink="http://www.w3.org/1999/xlink" x="0px" y="0px"
	 viewBox="32.4 12.3 65.2 65.2" enable-background="new 32.4 12.3 65.2 65.2" xml:space="preserve">
<path fill="#008AE8" d="M32.4,12.3l65.2,65.2V12.3H32.4z M86.9,30.5l-3.1,3.1c-0.7,0.6-1.1,1.9-0.9,2.8l0.7,4.4
	c0.2,0.9-0.4,1.3-1.2,0.9l-3.9-2.1c-0.8-0.4-2.1-0.4-2.9,0l-3.9,2.1c-0.8,0.4-1.3,0-1.2-0.9l0.7-4.4c0.2-0.9-0.3-2.2-0.9-2.8
	l-3.1-3.1c-0.7-0.6-0.4-1.3,0.5-1.4l4.3-0.6c0.9-0.1,2-0.9,2.4-1.8l1.9-4c0.4-0.8,1.1-0.8,1.5,0l1.9,4c0.4,0.8,1.5,1.6,2.4,1.8
	l4.3,0.6C87.4,29.2,87.6,29.8,86.9,30.5z"/>
</svg>
